<svg width="528" height="533" viewBox="0 0 528 533" fill="none" xmlns="http://www.w3.org/2000/svg">
<path fill-rule="evenodd" clip-rule="evenodd" d="M527.186 306C508.101 434.452 397.355 533 263.593 533C129.83 533 19.0852 434.452 0 306H103.729C121.251 378.304 186.401 432 264.093 432C341.784 432 406.934 378.304 424.457 306H527.186ZM527.186 227H424.211C406.333 155.201 341.426 102 264.093 102C186.76 102 121.853 155.201 103.975 227H5.12249e-07C19.0852 98.5477 129.83 0 263.593 0C397.355 0 508.101 98.5477 527.186 227Z" fill="white"/>
<circle cx="263.593" cy="266.5" r="124.5" fill="white"/>
</svg>
